<svg width="126" height="24" viewBox="0 0 126 24" fill="none" xmlns="http://www.w3.org/2000/svg">
<mask id="mask0_106_176" style="mask-type:alpha" maskUnits="userSpaceOnUse" x="114" y="5" width="12" height="12">
<rect x="114" y="5" width="12" height="12" fill="#D9D9D9"/>
</mask>
<g mask="url(#mask0_106_176)">
<rect x="112.065" y="6.88159" width="5.39815" height="17.0468" transform="rotate(-45 112.065 6.88159)" fill="#1E1E1E"/>
<rect x="115.882" y="18.9355" width="5.39815" height="17.0468" transform="rotate(-135 115.882 18.9355)" fill="#1E1E1E"/>
</g>
<path d="M24.576 13.688C24.576 16.9307 23.5093 19.352 21.376 20.952C19.2427 22.5307 16.3947 23.32 12.832 23.32C10.272 23.32 8.08535 22.9147 6.27201 22.104C4.48001 21.272 3.12535 20.2267 2.20801 18.968C1.31201 17.7093 0.864014 16.44 0.864014 15.16C0.864014 14.968 0.928014 14.808 1.05601 14.68C1.20535 14.5307 1.37601 14.456 1.56801 14.456H8.80001C8.99201 14.456 9.15201 14.52 9.28001 14.648C9.42935 14.776 9.53601 14.9467 9.60001 15.16C10.0053 16.44 11.0293 17.08 12.672 17.08C13.6747 17.08 14.464 16.8453 15.04 16.376C15.6373 15.9067 15.936 15.2347 15.936 14.36V7.16H4.25601C4.02135 7.16 3.81868 7.07467 3.64801 6.904C3.47735 6.73333 3.39201 6.53067 3.39201 6.296V1.464C3.39201 1.22933 3.47735 1.02667 3.64801 0.855999C3.81868 0.685332 4.02135 0.599998 4.25601 0.599998H23.712C23.9467 0.599998 24.1493 0.685332 24.32 0.855999C24.4907 1.02667 24.576 1.22933 24.576 1.464V13.688Z" fill="black"/>
<path d="M36.1795 21.912C35.9022 22.6373 35.4222 23 34.7395 23H28.6915C28.4995 23 28.3288 22.936 28.1795 22.808C28.0515 22.6587 27.9875 22.488 27.9875 22.296L28.0195 22.104L34.9955 1.656C35.0808 1.37867 35.2409 1.13333 35.4755 0.919998C35.7102 0.706665 36.0302 0.599998 36.4355 0.599998H45.3315C45.7368 0.599998 46.0568 0.706665 46.2915 0.919998C46.5262 1.13333 46.6862 1.37867 46.7715 1.656L53.7475 22.104L53.7795 22.296C53.7795 22.488 53.7049 22.6587 53.5555 22.808C53.4275 22.936 53.2675 23 53.0755 23H47.0275C46.3448 23 45.8648 22.6373 45.5875 21.912L44.7875 19.672H36.9795L36.1795 21.912ZM40.8835 6.776L38.6115 13.432H43.1555L40.8835 6.776Z" fill="black"/>
<path d="M65.031 14.36C65.031 15.2347 65.319 15.9067 65.895 16.376C66.4924 16.8453 67.2923 17.08 68.295 17.08C69.191 17.08 69.8523 16.9307 70.279 16.632C70.7057 16.3333 71.0684 15.8853 71.367 15.288C71.6444 14.7333 72.0177 14.456 72.487 14.456H79.399C79.591 14.456 79.751 14.5307 79.879 14.68C80.0283 14.808 80.103 14.968 80.103 15.16C80.103 16.4613 79.6657 17.7413 78.791 19C77.9164 20.2373 76.583 21.272 74.791 22.104C73.0203 22.9147 70.855 23.32 68.295 23.32C66.0123 23.32 63.975 22.9787 62.183 22.296C60.4123 21.592 59.0043 20.5253 57.959 19.096C56.9137 17.6453 56.391 15.8427 56.391 13.688V9.912C56.391 7.75733 56.9137 5.96533 57.959 4.536C59.0043 3.08533 60.4123 2.01867 62.183 1.336C63.975 0.631999 66.0123 0.279999 68.295 0.279999C70.855 0.279999 73.0203 0.695999 74.791 1.528C76.583 2.33867 77.9164 3.37333 78.791 4.632C79.6657 5.86933 80.103 7.13867 80.103 8.44C80.103 8.632 80.0283 8.80267 79.879 8.952C79.751 9.08 79.591 9.144 79.399 9.144H72.487C72.0177 9.144 71.6444 8.86667 71.367 8.312C71.0684 7.71467 70.7057 7.26667 70.279 6.968C69.8523 6.66933 69.191 6.52 68.295 6.52C67.2923 6.52 66.4924 6.75467 65.895 7.224C65.319 7.69333 65.031 8.36533 65.031 9.24V14.36Z" fill="black"/>
<path d="M108.379 21.88C108.464 22.008 108.507 22.1467 108.507 22.296C108.507 22.488 108.432 22.6587 108.283 22.808C108.155 22.936 107.995 23 107.803 23H99.5465C99.0558 23 98.6718 22.8293 98.3945 22.488L92.8265 15.608V22.136C92.8265 22.3707 92.7412 22.5733 92.5705 22.744C92.3999 22.9147 92.1972 23 91.9625 23H85.3705C85.1358 23 84.9332 22.9147 84.7625 22.744C84.5918 22.5733 84.5065 22.3707 84.5065 22.136V1.464C84.5065 1.22933 84.5918 1.02667 84.7625 0.855999C84.9332 0.685332 85.1358 0.599998 85.3705 0.599998H91.9625C92.1972 0.599998 92.3999 0.685332 92.5705 0.855999C92.7412 1.02667 92.8265 1.22933 92.8265 1.464V7.48L97.8825 1.144C98.2025 0.781332 98.5972 0.599998 99.0665 0.599998H106.779C106.971 0.599998 107.131 0.674665 107.259 0.823999C107.408 0.951999 107.483 1.112 107.483 1.304C107.483 1.47467 107.429 1.624 107.323 1.752L99.7385 11L108.379 21.88Z" fill="black"/>
</svg>
