<svg width="24" height="24" viewBox="0 0 24 24" fill="none" xmlns="http://www.w3.org/2000/svg">
<path d="M16.6916 2.21277H6.93985C4.24697 2.21277 2.06396 4.39578 2.06396 7.08865V16.8404C2.06396 19.5333 4.24697 21.7163 6.93985 21.7163H16.6916C19.3845 21.7163 21.5675 19.5333 21.5675 16.8404V7.08865C21.5675 4.39578 19.3845 2.21277 16.6916 2.21277Z" stroke="white" stroke-width="2" stroke-linecap="round" stroke-linejoin="round"/>
<path d="M15.7163 11.3502C15.8366 12.1618 15.698 12.9906 15.3201 13.7189C14.9422 14.4472 14.3443 15.0377 13.6115 15.4066C12.8786 15.7755 12.0481 15.9039 11.238 15.7735C10.428 15.6432 9.67968 15.2607 9.09953 14.6806C8.51937 14.1004 8.13692 13.3521 8.00658 12.5421C7.87623 11.732 8.00462 10.9015 8.3735 10.1686C8.74237 9.43576 9.33293 8.83787 10.0612 8.45999C10.7895 8.08211 11.6183 7.94348 12.4299 8.06383C13.2578 8.18659 14.0242 8.57235 14.616 9.16413C15.2077 9.75591 15.5935 10.5223 15.7163 11.3502Z" stroke="white" stroke-width="2" stroke-linecap="round" stroke-linejoin="round"/>
<path d="M17.1792 6.60107H17.1899" stroke="white" stroke-width="2" stroke-linecap="round" stroke-linejoin="round"/>
</svg>
